<?xml version="1.0" standalone="no"?>
<!DOCTYPE svg PUBLIC "-//W3C//DTD SVG 20010904//EN"
 "http://www.w3.org/TR/2001/REC-SVG-20010904/DTD/svg10.dtd">
<svg version="1.0" xmlns="http://www.w3.org/2000/svg"
 width="800.000000pt" height="565.000000pt" viewBox="0 0 800.000000 565.000000"
 preserveAspectRatio="xMidYMid meet">

<g transform="translate(0.000000,565.000000) scale(0.100000,-0.100000)"
fill="#000000" stroke="none">
<path d="M0 2825 l0 -2825 4000 0 4000 0 0 2825 0 2825 -4000 0 -4000 0 0
-2825z m6498 648 c-93 -116 -306 -350 -334 -366 -10 -6 40 -54 187 -178 110
-93 231 -193 267 -221 63 -47 65 -50 33 -44 -18 3 -57 6 -85 6 -49 0 -54 3
-118 64 -71 66 -82 86 -48 86 11 0 20 4 20 10 0 5 -57 61 -126 124 l-126 114
-67 4 c-36 2 -70 1 -76 -3 -5 -4 -32 -9 -58 -11 l-48 -3 2 158 c1 119 -2 162
-13 174 -15 19 -14 18 64 -22 l57 -29 3 -115 3 -115 200 175 c110 97 234 208
275 246 41 39 77 69 79 68 1 -2 -39 -57 -91 -122z m-4932 -39 l59 -87 3 -135
c3 -94 0 -142 -9 -158 -9 -18 -9 -45 0 -124 6 -55 11 -124 11 -153 0 -80 8
-87 125 -93 55 -3 145 -1 200 4 l100 11 22 -27 c24 -29 30 -48 12 -36 -14 8
-612 6 -636 -3 -11 -3 -3 10 18 33 20 21 40 48 44 59 7 20 7 20 14 0 6 -15 9
-9 14 23 3 28 14 51 31 67 25 23 26 29 26 134 l0 109 -30 11 c-16 5 -30 15
-30 21 0 6 -4 8 -10 5 -7 -4 -10 48 -10 150 0 102 3 154 10 150 15 -9 12 9
-10 67 -31 81 -29 80 46 -28z m1075 -229 c82 -28 155 -119 167 -208 5 -38 4
-39 -19 -32 -56 18 -69 25 -69 42 0 55 -58 162 -80 148 -4 -2 -23 3 -41 12
-42 21 -149 24 -187 6 -33 -16 -61 -59 -82 -128 l-16 -50 -44 4 c-25 1 -46 4
-48 5 -1 2 3 18 9 37 16 45 66 112 107 139 71 49 202 60 303 25z m633 11 c32
-13 66 -50 66 -70 0 -5 -10 -1 -22 10 -12 10 -18 14 -15 8 5 -8 -4 -8 -31 1
-74 25 -109 25 -144 1 -24 -16 -34 -30 -36 -54 -4 -44 28 -73 156 -140 55 -29
112 -66 126 -83 37 -44 36 -103 -4 -157 -43 -59 -71 -74 -150 -80 -61 -4 -76
-1 -125 23 -63 30 -69 44 -9 19 21 -9 64 -17 95 -18 68 -1 105 21 127 75 8 21
19 39 24 39 4 0 8 6 8 14 0 9 7 12 20 9 16 -4 20 0 20 21 0 44 -32 66 -94 66
-30 0 -66 4 -81 10 -17 6 -24 6 -20 0 11 -17 -34 4 -73 35 -100 80 -117 116
-86 180 41 86 157 129 248 91z m416 -10 c164 -22 175 -25 195 -51 22 -26 22
-32 22 -443 -1 -275 -3 -392 -9 -342 -4 41 -9 167 -11 279 -3 183 -5 204 -21
213 -14 8 -16 17 -12 43 5 23 2 38 -9 48 -13 14 -14 20 -1 54 21 57 27 102 16
124 -14 26 -111 52 -171 47 -72 -7 -82 -20 -77 -95 2 -35 3 -63 1 -63 -10 0
-54 93 -49 106 3 8 2 13 -2 10 -4 -2 -20 18 -35 45 -16 27 -25 49 -20 49 4 0
87 -11 183 -24z m680 16 c0 -4 -7 -18 -16 -31 -9 -13 -32 -53 -50 -90 l-33
-66 6 52 c5 50 5 52 -28 73 -29 18 -45 21 -102 17 -92 -6 -121 -27 -125 -90
-2 -25 3 -61 11 -80 13 -29 13 -42 0 -93 -22 -91 -21 -89 -43 -61 -18 22 -20
41 -20 151 0 175 -4 172 206 201 191 27 194 27 194 17z m309 -60 c1 -12 37
-111 81 -219 92 -222 95 -230 122 -259 l19 -22 -48 5 c-58 6 -62 10 -70 56 -4
30 -3 37 11 37 20 0 20 -2 -5 67 -27 72 -35 83 -65 83 -13 0 -24 5 -24 11 0 5
-4 7 -10 4 -5 -3 -11 -3 -11 2 -1 4 -3 19 -4 33 -2 14 -14 47 -26 74 -20 47
-22 49 -36 30 -9 -10 -29 -48 -45 -84 -28 -61 -42 -79 -60 -80 -17 0 -5 27 75
170 81 147 94 159 96 92z m774 37 c22 -6 55 -25 74 -43 28 -25 36 -41 40 -78
5 -42 2 -50 -22 -72 -16 -15 -40 -26 -56 -26 -15 0 -34 -3 -43 -6 -12 -5 -11
1 5 32 30 59 35 103 14 122 -13 13 -16 13 -9 2 4 -8 -6 -4 -23 10 -17 14 -29
28 -27 31 7 12 -65 18 -101 8 -19 -6 -40 -7 -47 -3 -8 5 -9 2 -5 -10 4 -10 7
-62 7 -116 l0 -99 53 -4 52 -3 -56 -2 c-43 -2 -58 2 -63 13 -3 9 -18 15 -36
15 l-30 0 0 -83 c0 -46 2 -86 5 -89 3 -3 17 -3 30 0 20 3 25 11 26 36 1 29 2
29 10 -9 4 -22 8 -67 8 -100 l1 -60 -59 0 c-53 0 -58 2 -45 16 11 12 14 65 16
255 3 228 2 240 -17 256 -19 17 -13 17 120 18 77 0 157 -5 178 -11z m-3134
-338 c14 -87 39 -133 90 -166 70 -45 160 -40 228 11 38 29 51 51 69 114 7 28
13 36 13 22 1 -16 5 -21 14 -15 12 8 17 9 37 12 6 0 15 11 20 24 7 19 9 16 9
-18 1 -35 -6 -48 -54 -102 -43 -47 -68 -67 -111 -82 -114 -43 -263 -17 -324
57 -33 41 -37 52 -15 52 12 0 13 15 8 88 -7 104 1 105 16 3z m3710 -121 l1
-75 -84 -1 -83 0 29 24 c27 23 28 27 29 125 1 99 15 99 18 0 l1 -43 33 19 c29
16 32 22 36 77 l4 59 8 -55 c4 -30 7 -89 8 -130z m-454 5 c27 -28 61 -58 75
-67 25 -17 24 -17 -37 -17 l-62 -1 -41 55 c-45 60 -46 65 -25 65 21 0 19 7
-18 59 -53 75 -52 80 5 16 29 -33 75 -83 103 -110z m-985 111 c8 -2 -9 -4 -37
-5 -29 0 -53 3 -53 7 0 7 52 6 90 -2z m-159 -100 c-23 -46 -54 -94 -68 -107
-29 -26 -30 -29 70 149 46 84 45 51 -2 -42z m-2176 24 c13 -27 14 -32 2 -20
-8 8 -18 26 -22 40 -9 32 -2 25 20 -20z m1745 -229 c-7 -112 -16 -215 -20
-230 -12 -41 -1 345 13 429 19 116 21 39 7 -199z m1307 -418 c-2 -16 -4 -3 -4
27 0 30 2 43 4 28 2 -16 2 -40 0 -55z m-1247 35 c0 -6 -6 -5 -15 2 -8 7 -15
14 -15 16 0 2 7 1 15 -2 8 -4 15 -11 15 -16z m-1575 -19 c9 -17 15 -33 13 -35
-3 -2 -12 12 -21 31 -21 43 -13 47 8 4z m571 16 c10 -26 -1 -35 -13 -10 -6 14
-7 25 -2 25 5 0 12 -7 15 -15z m91 -37 c-2 -13 -4 -5 -4 17 -1 22 1 32 4 23 2
-10 2 -28 0 -40z m240 0 c-2 -13 -4 -5 -4 17 -1 22 1 32 4 23 2 -10 2 -28 0
-40z m620 0 c-2 -13 -4 -5 -4 17 -1 22 1 32 4 23 2 -10 2 -28 0 -40z m165 17
c-2 -19 -6 -35 -8 -35 -2 0 -4 16 -4 35 0 19 4 35 8 35 4 0 6 -16 4 -35z m67
1 c-3 -3 -11 5 -18 17 -13 21 -12 21 5 5 10 -10 16 -20 13 -22z m298 19 c9
-24 -1 -27 -15 -5 -8 13 -8 20 -2 20 6 0 13 -7 17 -15z m258 -53 c-3 -3 -16 5
-29 17 l-24 23 -5 -24 c-3 -15 -5 -10 -6 15 l-1 37 35 -31 c19 -18 33 -35 30
-37z m112 16 c-2 -13 -4 -5 -4 17 -1 22 1 32 4 23 2 -10 2 -28 0 -40z m63 10
c-8 -7 -12 -9 -8 -4 4 5 2 18 -4 30 -10 20 -10 20 8 4 16 -15 16 -20 4 -30z
m77 -10 c-2 -13 -4 -5 -4 17 -1 22 1 32 4 23 2 -10 2 -28 0 -40z m321 16 c-3
-14 -5 -12 -10 9 -3 19 -2 25 4 19 6 -6 8 -18 6 -28z m-2759 -18 c15 -18 15
-18 -6 -7 -14 7 -23 21 -22 34 0 15 2 17 6 7 3 -8 13 -24 22 -34z m150 -3 c9
-7 11 -13 6 -13 -18 0 -35 23 -34 45 1 19 1 19 6 0 3 -11 13 -25 22 -32z m803
-3 c6 0 9 -3 6 -6 -11 -11 -48 21 -48 41 1 17 3 16 16 -7 8 -16 20 -28 26 -28z
m1916 3 c9 -7 11 -13 6 -13 -17 0 -34 23 -33 45 1 20 1 20 6 0 3 -11 12 -26
21 -32z m-3463 28 c3 -5 1 -12 -4 -15 -5 -3 -11 1 -15 9 -6 16 9 21 19 6z m60
-12 c-4 -5 -14 -8 -23 -8 -15 1 -15 2 1 6 9 2 14 9 11 15 -4 7 -2 8 5 4 6 -4
9 -12 6 -17z m55 6 c0 -8 -2 -15 -4 -15 -2 0 -6 7 -10 15 -3 8 -1 15 4 15 6 0
10 -7 10 -15z m881 -25 c7 0 10 -2 7 -5 -11 -12 -38 9 -37 29 0 21 0 21 9 -1
5 -13 15 -23 21 -23z m697 1 c9 -6 12 -11 5 -11 -15 0 -43 28 -43 43 0 7 5 4
11 -5 5 -10 17 -22 27 -27z m635 -10 c-5 -7 -43 31 -43 42 0 6 10 -1 23 -14
13 -13 22 -26 20 -28z m1517 39 c0 -5 -4 -10 -10 -10 -5 0 -10 5 -10 10 0 6 5
10 10 10 6 0 10 -4 10 -10z m54 -5 c3 -8 1 -15 -4 -15 -6 0 -10 7 -10 15 0 8
2 15 4 15 2 0 6 -7 10 -15z m66 5 c0 -5 -4 -10 -10 -10 -5 0 -10 5 -10 10 0 6
5 10 10 10 6 0 10 -4 10 -10z m-3323 -37 c-3 -10 -5 -4 -5 12 0 17 2 24 5 18
2 -7 2 -21 0 -30z m1188 17 c10 -11 13 -20 7 -20 -6 0 -16 9 -22 20 -6 11 -9
20 -7 20 2 0 12 -9 22 -20z m649 -19 c-7 -9 -34 10 -34 24 0 13 3 12 18 -2 10
-10 17 -20 16 -22z m680 0 c-5 -6 -34 20 -34 30 0 5 8 1 18 -8 10 -10 17 -20
16 -22z m33 2 c-3 -10 -5 -4 -5 12 0 17 2 24 5 18 2 -7 2 -21 0 -30z m-1771 0
c-7 -7 -26 7 -26 19 0 6 6 6 15 -2 9 -7 13 -15 11 -17z m615 10 c13 -16 12
-17 -3 -4 -17 13 -22 21 -14 21 2 0 10 -8 17 -17z"/>
<path d="M3577 3100 c3 -11 9 -22 13 -25 5 -3 6 4 3 15 -3 11 -9 22 -13 25 -5
3 -6 -4 -3 -15z"/>
</g>
</svg>
