<?xml version="1.0" standalone="no"?>
<!DOCTYPE svg PUBLIC "-//W3C//DTD SVG 20010904//EN"
 "http://www.w3.org/TR/2001/REC-SVG-20010904/DTD/svg10.dtd">
<svg version="1.0" xmlns="http://www.w3.org/2000/svg"
 width="512.000000pt" height="512.000000pt" viewBox="0 0 512.000000 512.000000"
 preserveAspectRatio="xMidYMid meet">

<g transform="translate(0.000000,512.000000) scale(0.100000,-0.100000)"
fill="#000000" stroke="none">
<path d="M4460 5013 c-37 -38 -165 -170 -284 -295 l-216 -228 0 -217 0 -218
-54 -60 -53 -59 -39 32 c-215 180 -346 268 -539 363 -711 346 -1564 280 -2245
-174 -249 -166 -498 -421 -650 -666 -162 -262 -274 -573 -317 -885 -23 -165
-22 -461 1 -621 126 -857 715 -1562 1529 -1830 261 -86 517 -122 792 -112 348
13 631 85 935 237 218 109 379 228 566 414 555 556 792 1382 610 2131 -83 340
-234 637 -465 915 l-71 85 58 57 57 57 210 7 c123 4 218 11 230 18 11 6 117
112 235 236 117 124 239 251 269 282 46 48 55 63 55 94 0 26 -7 42 -24 56 -21
17 -39 19 -217 16 l-193 -3 0 183 c0 225 -9 252 -87 252 -18 0 -45 -20 -93
-67z m42 -503 c21 -24 18 -23 177 -20 l125 2 -34 -38 c-18 -22 -99 -107 -179
-191 l-146 -152 -162 -7 -163 -7 0 165 0 165 178 187 177 187 5 -135 c4 -109
8 -139 22 -156z m-1950 -135 c400 -47 759 -203 1082 -469 l95 -79 -39 -46
c-21 -25 -63 -70 -93 -100 l-55 -54 -60 53 c-159 140 -410 284 -607 349 -449
146 -925 113 -1362 -94 -477 -226 -834 -646 -968 -1137 -43 -160 -57 -255 -62
-443 -10 -330 44 -580 188 -870 400 -808 1332 -1199 2198 -923 282 89 583 285
777 506 452 514 594 1213 373 1839 -62 174 -206 426 -317 553 l-39 45 91 98
91 99 52 -57 c166 -182 328 -476 408 -741 66 -218 80 -318 80 -594 0 -211 -3
-261 -22 -360 -42 -219 -100 -393 -194 -583 -408 -826 -1263 -1273 -2184
-1140 -669 96 -1265 532 -1566 1148 -146 299 -211 579 -211 920 -1 349 67 645
217 945 389 775 1255 1237 2127 1135z m34 -445 c141 -24 318 -82 441 -143 109
-55 279 -169 350 -234 l52 -48 -94 -99 -95 -99 -68 56 c-287 232 -622 337
-977 306 -323 -28 -620 -161 -852 -382 -166 -159 -280 -336 -346 -535 -60
-180 -72 -256 -72 -452 0 -198 15 -288 72 -454 166 -479 580 -827 1081 -911
127 -21 394 -16 512 10 262 58 487 181 675 370 495 497 552 1260 134 1812
l-51 66 98 98 98 99 31 -37 c78 -93 153 -209 214 -334 234 -471 225 -1003 -25
-1490 -150 -291 -405 -551 -685 -699 -269 -141 -529 -199 -843 -187 -370 14
-702 138 -981 367 -517 425 -728 1093 -551 1744 118 432 429 807 841 1013 256
129 471 181 757 182 124 1 196 -4 284 -19z m-86 -435 c214 -35 446 -145 587
-278 l32 -30 -262 -269 -261 -269 -79 158 c-44 87 -89 169 -101 181 -51 56
-130 68 -198 30 -35 -20 -48 -41 -128 -198 l-89 -177 -163 -22 c-90 -12 -179
-27 -198 -33 -83 -25 -133 -114 -110 -198 10 -35 35 -65 150 -179 l139 -136
-29 -160 c-36 -199 -37 -241 -7 -285 38 -56 72 -75 135 -75 52 0 70 7 217 86
l160 86 173 -88 c181 -94 212 -102 275 -75 44 18 85 68 93 113 5 24 -4 99 -24
217 l-31 181 134 135 c74 74 137 138 141 142 15 17 23 86 13 122 -21 79 -82
117 -212 132 l-58 7 68 71 c37 39 136 141 219 227 l152 156 46 -63 c63 -85
132 -217 166 -318 44 -128 60 -232 60 -381 0 -213 -40 -379 -136 -565 -175
-337 -465 -558 -836 -637 -103 -21 -349 -24 -458 -4 -396 71 -748 354 -902
724 -133 322 -125 686 21 993 62 130 115 208 210 307 281 295 694 436 1091
372z m-109 -802 l86 -177 -128 -132 c-110 -113 -129 -137 -129 -163 0 -43 39
-81 82 -81 28 0 50 18 193 165 l160 166 120 -17 c66 -10 122 -19 125 -21 2 -2
-55 -63 -127 -136 -72 -73 -136 -142 -142 -154 -17 -33 -13 -93 18 -265 15
-87 26 -158 23 -158 -3 0 -78 38 -167 85 -129 67 -172 85 -205 85 -33 0 -76
-18 -206 -86 -91 -47 -167 -85 -168 -83 -2 2 10 83 27 179 21 123 28 188 23
215 -7 34 -29 61 -144 177 -75 76 -134 139 -131 141 2 2 78 14 169 27 91 12
176 27 190 32 47 17 75 57 155 217 44 89 82 161 85 161 3 0 44 -80 91 -177z"/>
<path d="M2184 3311 c-35 -22 -49 -58 -35 -94 16 -42 49 -57 121 -57 57 0 70
3 88 23 24 25 29 75 12 107 -21 40 -135 52 -186 21z"/>
<path d="M1824 3220 c-139 -73 -287 -193 -299 -241 -10 -39 11 -78 50 -95 44
-18 50 -15 166 79 46 37 123 88 171 113 48 24 92 53 98 64 16 30 12 65 -11 94
-31 39 -80 35 -175 -14z"/>
</g>
</svg>
